<svg xmlns="http://www.w3.org/2000/svg" xmlns:xlink="http://www.w3.org/1999/xlink" viewBox="0,0,255.98958,255.98958" width="48px" height="48px"><g fill="#b000b2" fill-rule="nonzero" stroke="none" stroke-width="1" stroke-linecap="butt" stroke-linejoin="miter" stroke-miterlimit="10" stroke-dasharray="" stroke-dashoffset="0" font-family="none" font-weight="none" font-size="none" text-anchor="none" style="mix-blend-mode: normal"><g transform="scale(5.33333,5.33333)"><path d="M11.48047,5.00586c-0.97999,-0.00002 -1.95917,0.37128 -2.70117,1.11328l-2.66016,2.66016c-1.48452,1.48317 -1.484,3.91834 0,5.40234l9.81836,9.81836l-9.81836,9.81836c-1.48452,1.48317 -1.484,3.91834 0,5.40234l2.66016,2.66016c1.48317,1.48452 3.91834,1.484 5.40234,0l9.81836,-9.81836l9.81836,9.81836c1.48317,1.48452 3.91834,1.484 5.40234,0l2.66016,-2.66016c1.48452,-1.48317 1.484,-3.91834 0,-5.40234l-9.81836,-9.81836l9.81836,-9.81836c1.48452,-1.48317 1.484,-3.91834 0,-5.40234l-2.66016,-2.66016c-1.48317,-1.48452 -3.91834,-1.484 -5.40234,0l-9.81836,9.81836l-9.81836,-9.81836c-0.74159,-0.74226 -1.72119,-1.11327 -2.70117,-1.11328zM11.48047,6.99219c0.46376,-0.00002 0.9277,0.18128 1.28711,0.54102l10.52539,10.52539c0.39053,0.39037 1.02353,0.39037 1.41406,0l10.52539,-10.52539c0.72,-0.72 1.85539,-0.71948 2.57422,0l2.66016,2.66016c0.72,0.72 0.71948,1.85539 0,2.57422l-10.52539,10.52539c-0.39037,0.39053 -0.39037,1.02353 0,1.41406l10.52539,10.52539c0.72,0.72 0.71948,1.85539 0,2.57422l-2.66016,2.66016c-0.72,0.72 -1.85539,0.71948 -2.57422,0l-10.52539,-10.52539c-0.39053,-0.39037 -1.02353,-0.39037 -1.41406,0l-10.52539,10.52539c-0.72,0.72 -1.85539,0.71948 -2.57422,0l-2.66016,-2.66016c-0.72,-0.72 -0.71948,-1.85539 0,-2.57422l10.52539,-10.52539c0.39037,-0.39053 0.39037,-1.02353 0,-1.41406l-10.52539,-10.52539c-0.72,-0.72 -0.71948,-1.85539 0,-2.57422l2.66016,-2.66016c0.36,-0.36 0.82335,-0.541 1.28711,-0.54102z"></path></g></g></svg>